<mxfile host="app.diagrams.net" agent="Mozilla/5.0 (Windows NT 10.0; Win64; x64) AppleWebKit/537.36 (KHTML, like Gecko) Chrome/133.0.0.0 Safari/537.36" version="26.0.10">
  <diagram name="Page-1" id="rGsvy6zdWaP7gG9nhxah">
    <mxGraphModel dx="1180" dy="689" grid="1" gridSize="10" guides="1" tooltips="1" connect="1" arrows="1" fold="1" page="1" pageScale="1" pageWidth="850" pageHeight="1100" math="0" shadow="0">
      <root>
        <mxCell id="0" />
        <mxCell id="1" parent="0" />
        <mxCell id="Cho3IaONDnaUPG7j8wgp-2" value="ESL Core&amp;nbsp;" style="rounded=0;whiteSpace=wrap;html=1;fontSize=28;fontStyle=1;fillColor=#fff2cc;strokeColor=#d6b656;" vertex="1" parent="1">
          <mxGeometry x="360" y="290" width="130" height="240" as="geometry" />
        </mxCell>
        <mxCell id="Cho3IaONDnaUPG7j8wgp-4" value="Custom &lt;span style=&quot;background-color: transparent; color: light-dark(rgb(0, 0, 0), rgb(255, 255, 255));&quot;&gt;Connectors&lt;/span&gt;" style="rounded=0;whiteSpace=wrap;html=1;fontSize=20;fontStyle=1;fillColor=#d5e8d4;strokeColor=#82b366;direction=west;textDirection=vertical-lr;" vertex="1" parent="1">
          <mxGeometry x="290" y="290" width="70" height="240" as="geometry" />
        </mxCell>
        <mxCell id="Cho3IaONDnaUPG7j8wgp-5" value="Target&amp;nbsp;&lt;span style=&quot;background-color: transparent; color: light-dark(rgb(0, 0, 0), rgb(255, 255, 255));&quot;&gt;Connectors&lt;/span&gt;" style="rounded=0;whiteSpace=wrap;html=1;fontSize=20;fontStyle=1;fillColor=#dae8fc;strokeColor=#6c8ebf;direction=west;textDirection=vertical-lr;" vertex="1" parent="1">
          <mxGeometry x="490" y="290" width="70" height="240" as="geometry" />
        </mxCell>
        <mxCell id="Cho3IaONDnaUPG7j8wgp-23" style="edgeStyle=orthogonalEdgeStyle;rounded=0;orthogonalLoop=1;jettySize=auto;html=1;exitX=0.75;exitY=1;exitDx=0;exitDy=0;entryX=0.5;entryY=0;entryDx=0;entryDy=0;" edge="1" parent="1" source="Cho3IaONDnaUPG7j8wgp-6" target="Cho3IaONDnaUPG7j8wgp-4">
          <mxGeometry relative="1" as="geometry">
            <Array as="points">
              <mxPoint x="750" y="550" />
              <mxPoint x="325" y="550" />
            </Array>
          </mxGeometry>
        </mxCell>
        <mxCell id="Cho3IaONDnaUPG7j8wgp-24" value="Real-Time Connetors" style="edgeLabel;html=1;align=center;verticalAlign=middle;resizable=0;points=[];" vertex="1" connectable="0" parent="Cho3IaONDnaUPG7j8wgp-23">
          <mxGeometry x="0.175" y="-1" relative="1" as="geometry">
            <mxPoint as="offset" />
          </mxGeometry>
        </mxCell>
        <mxCell id="Cho3IaONDnaUPG7j8wgp-6" value="Shop&amp;nbsp;&lt;div&gt;Systems&lt;/div&gt;" style="rounded=1;whiteSpace=wrap;html=1;" vertex="1" parent="1">
          <mxGeometry x="660" y="420" width="120" height="60" as="geometry" />
        </mxCell>
        <mxCell id="Cho3IaONDnaUPG7j8wgp-7" value="Database" style="shape=cylinder3;whiteSpace=wrap;html=1;boundedLbl=1;backgroundOutline=1;size=15;" vertex="1" parent="1">
          <mxGeometry x="660" y="310" width="60" height="80" as="geometry" />
        </mxCell>
        <mxCell id="Cho3IaONDnaUPG7j8wgp-8" style="edgeStyle=orthogonalEdgeStyle;rounded=0;orthogonalLoop=1;jettySize=auto;html=1;exitX=0.25;exitY=0;exitDx=0;exitDy=0;entryX=0.5;entryY=1;entryDx=0;entryDy=0;entryPerimeter=0;startArrow=classic;startFill=1;" edge="1" parent="1" source="Cho3IaONDnaUPG7j8wgp-6" target="Cho3IaONDnaUPG7j8wgp-7">
          <mxGeometry relative="1" as="geometry" />
        </mxCell>
        <mxCell id="Cho3IaONDnaUPG7j8wgp-9" style="edgeStyle=orthogonalEdgeStyle;rounded=0;orthogonalLoop=1;jettySize=auto;html=1;exitX=0;exitY=0.5;exitDx=0;exitDy=0;entryX=0;entryY=0.5;entryDx=0;entryDy=0;startArrow=none;startFill=0;" edge="1" parent="1" source="Cho3IaONDnaUPG7j8wgp-5" target="Cho3IaONDnaUPG7j8wgp-6">
          <mxGeometry relative="1" as="geometry" />
        </mxCell>
        <mxCell id="Cho3IaONDnaUPG7j8wgp-22" value="Import&lt;div&gt;&lt;br&gt;&lt;/div&gt;" style="edgeLabel;html=1;align=center;verticalAlign=middle;resizable=0;points=[];" vertex="1" connectable="0" parent="Cho3IaONDnaUPG7j8wgp-9">
          <mxGeometry x="0.0714" y="-1" relative="1" as="geometry">
            <mxPoint y="15" as="offset" />
          </mxGeometry>
        </mxCell>
        <mxCell id="Cho3IaONDnaUPG7j8wgp-10" value="ERP&lt;div&gt;Systems&lt;/div&gt;" style="rounded=1;whiteSpace=wrap;html=1;" vertex="1" parent="1">
          <mxGeometry x="80" y="300" width="120" height="60" as="geometry" />
        </mxCell>
        <mxCell id="Cho3IaONDnaUPG7j8wgp-15" style="edgeStyle=orthogonalEdgeStyle;rounded=0;orthogonalLoop=1;jettySize=auto;html=1;exitX=1;exitY=0.5;exitDx=0;exitDy=0;entryX=1;entryY=0.5;entryDx=0;entryDy=0;startArrow=classic;startFill=1;" edge="1" parent="1" source="Cho3IaONDnaUPG7j8wgp-11" target="Cho3IaONDnaUPG7j8wgp-4">
          <mxGeometry relative="1" as="geometry" />
        </mxCell>
        <mxCell id="Cho3IaONDnaUPG7j8wgp-11" value="PIM Systems" style="rounded=1;whiteSpace=wrap;html=1;" vertex="1" parent="1">
          <mxGeometry x="80" y="380" width="120" height="60" as="geometry" />
        </mxCell>
        <mxCell id="Cho3IaONDnaUPG7j8wgp-16" style="edgeStyle=orthogonalEdgeStyle;rounded=0;orthogonalLoop=1;jettySize=auto;html=1;exitX=1;exitY=0.5;exitDx=0;exitDy=0;entryX=1;entryY=0.25;entryDx=0;entryDy=0;startArrow=classic;startFill=1;" edge="1" parent="1" source="Cho3IaONDnaUPG7j8wgp-12" target="Cho3IaONDnaUPG7j8wgp-4">
          <mxGeometry relative="1" as="geometry" />
        </mxCell>
        <mxCell id="Cho3IaONDnaUPG7j8wgp-12" value="CRM Systems" style="rounded=1;whiteSpace=wrap;html=1;" vertex="1" parent="1">
          <mxGeometry x="80" y="460" width="120" height="60" as="geometry" />
        </mxCell>
        <mxCell id="Cho3IaONDnaUPG7j8wgp-14" style="edgeStyle=orthogonalEdgeStyle;rounded=0;orthogonalLoop=1;jettySize=auto;html=1;exitX=1;exitY=0.5;exitDx=0;exitDy=0;entryX=0.971;entryY=0.721;entryDx=0;entryDy=0;entryPerimeter=0;startArrow=classic;startFill=1;" edge="1" parent="1" source="Cho3IaONDnaUPG7j8wgp-10" target="Cho3IaONDnaUPG7j8wgp-4">
          <mxGeometry relative="1" as="geometry" />
        </mxCell>
        <mxCell id="Cho3IaONDnaUPG7j8wgp-17" value="Data Extraction" style="text;html=1;align=center;verticalAlign=middle;whiteSpace=wrap;rounded=0;fontSize=16;fontStyle=1" vertex="1" parent="1">
          <mxGeometry x="110" y="250" width="120" height="30" as="geometry" />
        </mxCell>
        <mxCell id="Cho3IaONDnaUPG7j8wgp-18" value="Data Transform" style="text;html=1;align=center;verticalAlign=middle;whiteSpace=wrap;rounded=0;fontSize=16;fontStyle=1" vertex="1" parent="1">
          <mxGeometry x="365" y="250" width="120" height="30" as="geometry" />
        </mxCell>
        <mxCell id="Cho3IaONDnaUPG7j8wgp-19" value="Data Load" style="text;html=1;align=center;verticalAlign=middle;whiteSpace=wrap;rounded=0;fontSize=16;fontStyle=1" vertex="1" parent="1">
          <mxGeometry x="630" y="250" width="120" height="30" as="geometry" />
        </mxCell>
        <mxCell id="Cho3IaONDnaUPG7j8wgp-20" style="edgeStyle=orthogonalEdgeStyle;rounded=0;orthogonalLoop=1;jettySize=auto;html=1;exitX=0.5;exitY=1;exitDx=0;exitDy=0;entryX=-0.029;entryY=0.125;entryDx=0;entryDy=0;entryPerimeter=0;" edge="1" parent="1" source="Cho3IaONDnaUPG7j8wgp-6" target="Cho3IaONDnaUPG7j8wgp-5">
          <mxGeometry relative="1" as="geometry" />
        </mxCell>
        <mxCell id="Cho3IaONDnaUPG7j8wgp-21" value="Extract Orders &amp;amp; Customers" style="edgeLabel;html=1;align=center;verticalAlign=middle;resizable=0;points=[];" vertex="1" connectable="0" parent="Cho3IaONDnaUPG7j8wgp-20">
          <mxGeometry x="0.6156" y="-2" relative="1" as="geometry">
            <mxPoint x="44" as="offset" />
          </mxGeometry>
        </mxCell>
      </root>
    </mxGraphModel>
  </diagram>
</mxfile>
